<svg width="10" height="10" viewBox="0 0 10 10" fill="none" xmlns="http://www.w3.org/2000/svg">
<path fill-rule="evenodd" clip-rule="evenodd" d="M5.1165 9.85166L1.9916 7.40899H0.554772C0.24789 7.40899 0 7.16025 0 6.85338V3.14536C0 2.83849 0.248314 2.58975 0.554772 2.58975H1.9916L5.15388 0.11731C5.3954 -0.0707252 5.7426 -0.0282719 5.93106 0.212813C6.01001 0.314256 6.05033 0.434381 6.05033 0.553646V9.44419C6.05033 9.93061 5.4684 10.1789 5.11652 9.85124L5.1165 9.85166ZM6.90268 4.48789C6.66498 4.29477 6.62933 3.94586 6.82203 3.70859C7.01515 3.47132 7.36364 3.43525 7.60091 3.62837C8.46342 4.32999 8.49525 5.5486 7.65567 6.28336C7.42604 6.48456 7.07586 6.46121 6.87466 6.23115C6.67347 6.0011 6.69682 5.65093 6.92645 5.44974C7.24776 5.16833 7.23503 4.75873 6.90225 4.48793L6.90268 4.48789ZM7.68071 2.93525C8.4214 3.3423 8.88871 4.11779 8.88871 4.97903C8.88871 5.86486 8.39251 6.66108 7.61997 7.05628C7.34789 7.19549 7.24008 7.5287 7.37931 7.80077C7.51768 8.07284 7.85174 8.18066 8.12297 8.04187C8.69047 7.75196 9.16544 7.31053 9.49439 6.77152C10.5207 5.09447 9.9303 2.90563 8.21424 1.9629C7.94598 1.81561 7.60854 1.91366 7.46125 2.18191C7.31396 2.45059 7.41244 2.7876 7.68069 2.93489L7.68071 2.93525ZM4.93951 8.3075V1.69033L2.55699 3.552C2.45809 3.64411 2.32524 3.70056 2.17922 3.70056H1.11043V6.29731L2.17922 6.29943C2.2985 6.29943 2.41861 6.33763 2.51963 6.41658L4.93953 8.30704L4.93951 8.3075Z" fill="white"/>
</svg>
